<svg xmlns="http://www.w3.org/2000/svg" viewBox="114.55000305175781 49.99999999999997 345.8999938964844 474.99112053247825"> <g transform="rotate(0 287.5 249.27365707136718)"><svg xmlns="http://www.w3.org/2000/svg" xmlns:xlink="http://www.w3.org/1999/xlink" version="1.1" id="Layer_1" x="184.5533633665456" y="119.99999999999997" viewBox="60.20000457763672 7.800000190734863 69.59998321533203 87.39999389648438" xml:space="preserve" height="258.5473141427344" width="205.8932732669088" preserveAspectRatio="xMinYMin" enable-background="new 0 0 192 108" style="overflow: visible;"><path d="M100.6,17.4v3.7C115,23.8,126,36.5,126,51.5c0,16.3-13,30-29.2,30.9V31.6v-11v-3.7V9.6V7.8h-3.7v9  c-18.2,1-32.9,16.3-32.9,34.7c0,17.1,12.7,31.4,29.2,34.1v-3.7C75,79.2,64,66.5,64,51.5c0-16.3,13-30,29.2-30.9v56.2v5.7v3.7v9h3.7  v-9c18.2-1,32.9-16.3,32.9-34.7C129.7,34.4,117,20.1,100.6,17.4z" style="fill: #ed2939; fill-opacity: 1;"></path></svg></g> <g transform="rotate(0 287.5 431.9961196932448)"><svg xmlns="http://www.w3.org/2000/svg" y="409.0011188540114" viewBox="2.8899998664855957 16.479999542236328 205.89999389648438 45.9900016784668" x="184.5500030517578" height="45.9900016784668" width="205.89999389648438" style="overflow: visible;"><g fill="#007958" fill-opacity="1" style=""><path d="M47.25 39.49L47.25 39.49Q47.25 44.55 45.65 48.77Q44.05 52.99 41.13 56.04Q38.21 59.08 34.11 60.76Q30.01 62.44 25.05 62.44L25.05 62.44Q20.09 62.44 16.01 60.76Q11.93 59.08 9.01 56.04Q6.09 52.99 4.49 48.77Q2.89 44.55 2.89 39.49L2.89 39.49Q2.89 34.44 4.49 30.22Q6.09 25.99 9.01 22.93Q11.93 19.87 16.01 18.18Q20.09 16.48 25.05 16.48L25.05 16.48Q30.01 16.48 34.11 18.18Q38.21 19.87 41.13 22.93Q44.05 25.99 45.65 30.22Q47.25 34.44 47.25 39.49ZM41.00 39.49L41.00 39.49Q41.00 35.35 39.87 32.05Q38.74 28.76 36.67 26.48Q34.60 24.20 31.65 22.98Q28.69 21.76 25.05 21.76L25.05 21.76Q21.44 21.76 18.49 22.98Q15.54 24.20 13.45 26.48Q11.36 28.76 10.23 32.05Q9.10 35.35 9.10 39.49L9.10 39.49Q9.10 43.64 10.23 46.92Q11.36 50.20 13.45 52.48Q15.54 54.75 18.49 55.96Q21.44 57.17 25.05 57.17L25.05 57.17Q28.69 57.17 31.65 55.96Q34.60 54.75 36.67 52.48Q38.74 50.20 39.87 46.92Q41.00 43.64 41.00 39.49ZM112.26 16.98L112.26 61.97L106.17 61.97L106.17 16.98L112.26 16.98ZM205.49 52.68L205.49 52.68Q205.99 52.68 206.40 53.09L206.40 53.09L208.79 55.69Q206.02 58.90 202.08 60.68Q198.14 62.47 192.59 62.47L192.59 62.47Q187.72 62.47 183.77 60.79Q179.81 59.12 177.02 56.09Q174.22 53.06 172.68 48.82Q171.15 44.58 171.15 39.49L171.15 39.49Q171.15 34.41 172.79 30.17Q174.44 25.93 177.42 22.89Q180.41 19.84 184.57 18.16Q188.73 16.48 193.75 16.48L193.75 16.48Q198.71 16.48 202.30 18.02Q205.90 19.56 208.69 22.20L208.69 22.20L206.72 24.99Q206.50 25.30 206.21 25.51Q205.93 25.71 205.40 25.71L205.40 25.71Q204.99 25.71 204.53 25.41Q204.08 25.12 203.45 24.68Q202.82 24.24 201.97 23.73Q201.13 23.23 199.97 22.79Q198.80 22.35 197.27 22.05Q195.73 21.76 193.72 21.76L193.72 21.76Q190.11 21.76 187.11 23.00Q184.11 24.24 181.95 26.53Q179.78 28.82 178.57 32.12Q177.36 35.41 177.36 39.49L177.36 39.49Q177.36 43.70 178.57 47.00Q179.78 50.29 181.87 52.57Q183.95 54.85 186.81 56.04Q189.67 57.23 192.96 57.23L192.96 57.23Q194.97 57.23 196.57 57.00Q198.18 56.76 199.54 56.26Q200.91 55.76 202.08 54.99Q203.26 54.22 204.45 53.15L204.45 53.15Q204.99 52.68 205.49 52.68Z" transform="translate(0, 0)"></path></g></svg></g></svg>